<?xml version="1.0" standalone="no"?>
<!DOCTYPE svg PUBLIC "-//W3C//DTD SVG 1.1//EN" "http://www.w3.org/Graphics/SVG/1.1/DTD/svg11.dtd">
<svg class="icon" style="width: 1em;height: 1em;vertical-align: middle;fill: currentColor;overflow: hidden;" viewBox="0 0 1024 1024" version="1.1" xmlns="http://www.w3.org/2000/svg"><path d="M525.909333 120.533333L512 113.792l-13.909333 6.741333-341.333334 164.821334-18.090666 8.746666v20.053334c0 404.821333 245.162667 567.509333 367.061333 591.872l6.272 1.28 6.272-1.28c121.898667-24.32 367.061333-187.050667 367.061333-591.829334v-20.096l-18.090666-8.746666-341.333334-164.821334zM512 841.898667c-93.269333-22.613333-301.482667-156.16-309.12-507.733334L512 184.832l309.12 149.333333c-7.637333 351.573333-215.893333 485.12-309.12 507.733334z m171.946667-392.618667l22.613333-22.613333-45.226667-45.226667-22.613333 22.613333L469.333333 573.44l-62.72-62.72-22.613333-22.613333-45.226667 45.226666 22.613334 22.613334 85.333333 85.333333 22.613333 22.613333 22.613334-22.613333 192-192z" fill="#29506C" /></svg>