<?xml version="1.0" standalone="no"?>
<!DOCTYPE svg PUBLIC "-//W3C//DTD SVG 1.1//EN" "http://www.w3.org/Graphics/SVG/1.1/DTD/svg11.dtd">
<svg class="icon" style="width: 1em;height: 1em;vertical-align: middle;fill: currentColor;overflow: hidden;" viewBox="0 0 1024 1024" version="1.1" xmlns="http://www.w3.org/2000/svg"><path d="M117.333333 512a394.666667 394.666667 0 1 1 789.333334 0 394.666667 394.666667 0 0 1-789.333334 0zM512 53.333333C258.688 53.333333 53.333333 258.688 53.333333 512S258.688 970.666667 512 970.666667 970.666667 765.312 970.666667 512 765.312 53.333333 512 53.333333z m126.72 630.613334L512 557.226667l-126.72 126.72-45.226667-45.226667L466.773333 512 340.053333 385.28l45.226667-45.226667L512 466.773333l126.72-126.72 45.226667 45.226667L557.226667 512l126.72 126.72-45.226667 45.226667z" fill="#29506C" /></svg>