<?xml version="1.0" standalone="no"?>
<!DOCTYPE svg PUBLIC "-//W3C//DTD SVG 1.1//EN" "http://www.w3.org/Graphics/SVG/1.1/DTD/svg11.dtd">
<svg class="icon" style="width: 1em;height: 1em;vertical-align: middle;fill: currentColor;overflow: hidden;" viewBox="0 0 1024 1024" version="1.1" xmlns="http://www.w3.org/2000/svg"><path d="M213.333333 117.333333A96 96 0 0 0 117.333333 213.333333v597.333334A96 96 0 0 0 213.333333 906.666667h597.333334A96 96 0 0 0 906.666667 810.666667V213.333333A96 96 0 0 0 810.666667 117.333333H213.333333zM53.333333 213.333333A160 160 0 0 1 213.333333 53.333333h597.333334A160 160 0 0 1 970.666667 213.333333v597.333334A160 160 0 0 1 810.666667 970.666667H213.333333A160 160 0 0 1 53.333333 810.666667V213.333333z m413.44 298.666667L340.053333 385.28l45.226667-45.226667L512 466.773333l126.72-126.72 45.226667 45.226667L557.226667 512l126.72 126.72-45.226667 45.226667L512 557.226667l-126.72 126.72-45.226667-45.226667L466.773333 512z" fill="#29506C" /></svg>