<?xml version="1.0" standalone="no"?>
<!DOCTYPE svg PUBLIC "-//W3C//DTD SVG 1.1//EN" "http://www.w3.org/Graphics/SVG/1.1/DTD/svg11.dtd">
<svg class="icon" style="width: 1em;height: 1em;vertical-align: middle;fill: currentColor;overflow: hidden;" viewBox="0 0 1024 1024" version="1.1" xmlns="http://www.w3.org/2000/svg"><path d="M661.333333 202.666667c-87.210667 0-160 73.856-160 167.68 0 41.088 14.08 78.506667 37.290667 107.562666l10.026667 12.501334-4.053334 15.530666-4.352 16.725334H688.768c43.733333 0 75.946667-19.712 98.048-48.512 22.741333-29.610667 34.517333-68.693333 34.517333-103.850667 0-93.781333-72.789333-167.637333-160-167.637333zM498.858667 554.666667v32h-41.386667l10.453333-40.064 10.88-41.941334a236.16 236.16 0 0 1-41.472-134.357333c0-126.72 99.114667-231.637333 224-231.637333s224 104.917333 224 231.68c0 47.872-15.658667 100.992-47.786666 142.805333-32.725333 42.581333-82.773333 73.514667-148.778667 73.514667H498.901333V554.666667zM95.146667 181.333333h263.125333l2.218667 29.610667 12.757333 170.752 1.109333 14.72-10.496 10.368-124.458666 123.434667a579.626667 579.626667 0 0 0 252.586666 255.274666l125.354667-125.44 11.093333-11.093333 15.530667 1.962667 170.666667 21.333333 28.032 3.498667v253.226666l-32.938667-0.981333c-273.322667-8.149333-513.152-132.821333-633.173333-380.586667A812.202667 812.202667 0 0 1 96 214.186667l-0.853333-32.853334z m459.093333 632.448c69.077333 27.050667 144.64 43.264 224.426667 48.64v-130.133333l-127.104-15.914667-97.28 97.408z m-342.784-345.984l96.853333-96.042666-9.386666-126.421334h-137.386667c5.461333 78.378667 22.741333 153.173333 49.92 222.464z m384.298667-100.565333a32 32 0 1 0-64 0 32 32 0 0 0 64 0z m64-32a32 32 0 1 1 0 64 32 32 0 0 1 0-64z m128 32a32 32 0 1 0-64 0 32 32 0 0 0 64 0z" fill="#29506C" /></svg>