<?xml version="1.0" standalone="no"?>
<!DOCTYPE svg PUBLIC "-//W3C//DTD SVG 1.1//EN" "http://www.w3.org/Graphics/SVG/1.1/DTD/svg11.dtd">
<svg class="icon" style="width: 1em;height: 1em;vertical-align: middle;fill: currentColor;overflow: hidden;" viewBox="0 0 1024 1024" version="1.1" xmlns="http://www.w3.org/2000/svg"><path d="M117.333333 213.333333A96 96 0 0 1 213.333333 117.333333h597.333334A96 96 0 0 1 906.666667 213.333333v597.333334A96 96 0 0 1 810.666667 906.666667H213.333333A96 96 0 0 1 117.333333 810.666667V213.333333zM213.333333 53.333333A160 160 0 0 0 53.333333 213.333333v597.333334A160 160 0 0 0 213.333333 970.666667h597.333334A160 160 0 0 0 970.666667 810.666667V213.333333A160 160 0 0 0 810.666667 53.333333H213.333333z m470.613334 395.946667l22.613333-22.613333-45.226667-45.226667-22.613333 22.613333L469.333333 573.44l-62.72-62.72-22.613333-22.613333-45.226667 45.226666 22.613334 22.613334 85.333333 85.333333 22.613333 22.613333 22.613334-22.613333 192-192z" fill="#29506C" /></svg>