<?xml version="1.0" standalone="no"?>
<!DOCTYPE svg PUBLIC "-//W3C//DTD SVG 1.1//EN" "http://www.w3.org/Graphics/SVG/1.1/DTD/svg11.dtd">
<svg class="icon" style="width: 1em;height: 1em;vertical-align: middle;fill: currentColor;overflow: hidden;" viewBox="0 0 1024 1024" version="1.1" xmlns="http://www.w3.org/2000/svg"><path d="M584.96 179.541333a103.082667 103.082667 0 0 0-145.792 145.792l72.917333 72.874667 72.874667-72.874667a103.082667 103.082667 0 0 0 0-145.792z m45.226667-45.269333l-21.077334 21.12 21.12-21.12a167.082667 167.082667 0 0 1 0 236.288l-22.613333-22.613333 22.613333 22.613333-95.530666 95.573333-22.613334 22.613334-22.613333-22.613334-95.573333-95.573333 22.656-22.613333-22.613334 22.613333a167.082667 167.082667 0 1 1 236.288-236.288z m-118.101334 401.024l22.613334 22.613333 95.530666 95.530667-22.613333 22.613333 22.613333-22.613333a167.082667 167.082667 0 0 1 0 236.288l-22.613333-22.613333 22.613333 22.613333a167.082667 167.082667 0 0 1-236.288 0l22.613334-22.613333-22.613334 22.613333a167.082667 167.082667 0 0 1 0-236.288l95.488-95.530667 22.613334-22.613333z m0 90.496l-72.917333 72.874667a103.082667 103.082667 0 1 0 145.792 0l-72.874667-72.874667z m332.373334-40.832a103.082667 103.082667 0 1 0-145.792-145.792l-72.874667 72.917333 72.874667 72.874667a103.082667 103.082667 0 0 0 145.834666 0z m45.269333 45.226667l-21.162667-21.162667 21.162667 21.205333a167.082667 167.082667 0 0 1-236.288 0l22.613333-22.613333-22.613333 22.613333-95.530667-95.530666-22.613333-22.613334 22.613333-22.613333 95.530667-95.573333 22.613333 22.656-22.613333-22.613334a167.082667 167.082667 0 0 1 236.288 236.288zM179.541333 584.96a103.082667 103.082667 0 0 1 145.792-145.792l72.874667 72.917333-72.874667 72.874667a103.082667 103.082667 0 0 1-145.792 0z m-45.269333 45.226667l21.205333-21.162667-21.205333 21.205333a167.082667 167.082667 0 0 0 236.288 0l-22.613333-22.613333 22.613333 22.613333 95.573333-95.530666 22.613334-22.613334-22.613334-22.613333-95.573333-95.573333-22.613333 22.656 22.613333-22.613334a167.082667 167.082667 0 1 0-236.288 236.288z" fill="#29506C" /></svg>