<?xml version="1.0" standalone="no"?>
<!DOCTYPE svg PUBLIC "-//W3C//DTD SVG 1.1//EN" "http://www.w3.org/Graphics/SVG/1.1/DTD/svg11.dtd">
<svg class="icon" style="width: 1em;height: 1em;vertical-align: middle;fill: currentColor;overflow: hidden;" viewBox="0 0 1024 1024" version="1.1" xmlns="http://www.w3.org/2000/svg"><path d="M459.947 584.249l-0.228 111.331-252.985 1.309-45.056 55.182v100.807h407.21v114.233h-512V713.387l104.79-129.138h298.269z m450.275 269.084v102.4H682.667v-102.4h227.555z m0-142.222v102.4H568.89v-102.4h341.333z m0-142.222v102.4H512v-102.4h398.222zM455.112 28.444a256 256 0 1 1 0 512 256 256 0 0 1 0-512z m0 113.778a142.222 142.222 0 1 0 0 284.445 142.222 142.222 0 0 0 0-284.445z" /></svg>