<?xml version="1.0" standalone="no"?>
<!DOCTYPE svg PUBLIC "-//W3C//DTD SVG 1.1//EN" "http://www.w3.org/Graphics/SVG/1.1/DTD/svg11.dtd">
<svg class="icon" style="width: 1em;height: 1em;vertical-align: middle;fill: currentColor;overflow: hidden;" viewBox="0 0 1024 1024" version="1.1" xmlns="http://www.w3.org/2000/svg"><path d="M733.184 518.6l200.249 120.035v236.771l-200.249 120.15L532.935 875.52V638.692l200.249-120.093z m-204.231 65.706l-68.893 58.766v53.817H206.734l-45.056 55.182v71.965h298.269v56.888l68.835 57.344H56.89V713.444l104.79-129.138h367.33z m204.231 64.455l-86.699 49.664v117.191l86.699 53.305 90.453-53.305V698.425l-90.453-49.664zM455.111 28.444a256 256 0 1 1 0 512 256 256 0 0 1 0-512z m0 113.778a142.222 142.222 0 1 0 0 284.445 142.222 142.222 0 0 0 0-284.445z" /></svg>