<?xml version="1.0" standalone="no"?>
<!DOCTYPE svg PUBLIC "-//W3C//DTD SVG 1.1//EN" "http://www.w3.org/Graphics/SVG/1.1/DTD/svg11.dtd">
<svg class="icon" style="width: 1em;height: 1em;vertical-align: middle;fill: currentColor;overflow: hidden;" viewBox="0 0 1024 1024" version="1.1" xmlns="http://www.w3.org/2000/svg"><path d="M768 723.2c-19.2 0-38.4 6.4-51.2 19.2s-19.2 32-19.2 51.2 6.4 38.4 19.2 51.2 32 19.2 51.2 19.2c19.2 0 38.4-6.4 51.2-19.2 12.8-12.8 19.2-32 19.2-51.2s-6.4-38.4-19.2-51.2c-12.8-12.8-32-19.2-51.2-19.2zM896 569.6H640l-128 224 128 224h256l128-224-128-224z m-51.2 364.8H691.2L614.4 800l76.8-134.4h153.6L921.6 800l-76.8 134.4zM384 409.6h332.8V512H384zM249.6 249.6h576V512h96V153.6H768V0H0v870.4h153.6v102.4h320v-96h-224V249.6z m-96-96v620.8H96V96h576v57.6H153.6z" /></svg>