<?xml version="1.0" standalone="no"?>
<!DOCTYPE svg PUBLIC "-//W3C//DTD SVG 1.1//EN" "http://www.w3.org/Graphics/SVG/1.1/DTD/svg11.dtd">
<svg class="icon" style="width: 1em;height: 1em;vertical-align: middle;fill: currentColor;overflow: hidden;" viewBox="0 0 1024 1024" version="1.1" xmlns="http://www.w3.org/2000/svg"><path d="M716.516 820.11l63.032 94.777A481.508 481.508 0 0 1 512 995.556a481.564 481.564 0 0 1-247.41-67.983l-15.701-9.785 62.009-95.402A367.73 367.73 0 0 0 512 881.778c73.899 0 144.384-21.618 204.516-61.668zM106.95 247.808l95.232 62.18A367.73 367.73 0 0 0 142.223 512c0 67.812 18.204 132.836 52.223 189.554l8.818 13.994-94.948 62.749A481.508 481.508 0 0 1 28.444 512c0-95.118 27.592-186.254 78.507-264.249z m810.667 0.853A481.508 481.508 0 0 1 995.556 512c0 88.576-23.894 173.796-68.38 248.036l-9.843 15.758-95.289-62.123A367.73 367.73 0 0 0 881.778 512a367.787 367.787 0 0 0-50.916-187.392l-8.59-13.88 95.346-62.01zM512 256a256 256 0 1 1 0 512 256 256 0 0 1 0-512z m0 113.778a142.222 142.222 0 1 0 0 284.444 142.222 142.222 0 0 0 0-284.444z m0-341.334c90.396 0 177.152 24.918 252.416 71.055l15.929 10.24-63.147 94.549A367.73 367.73 0 0 0 512 142.222a367.787 367.787 0 0 0-188.132 51.37l-13.937 8.648-62.237-95.232A481.508 481.508 0 0 1 512 28.444z" /></svg>