<?xml version="1.0" standalone="no"?>
<!DOCTYPE svg PUBLIC "-//W3C//DTD SVG 1.1//EN" "http://www.w3.org/Graphics/SVG/1.1/DTD/svg11.dtd">
<svg class="icon" style="width: 1em;height: 1em;vertical-align: middle;fill: currentColor;overflow: hidden;" viewBox="0 0 1024 1024" version="1.1" xmlns="http://www.w3.org/2000/svg"><path d="M736 300.8H192V185.6h544v115.2z m0 192H192V377.6h544v115.2z m-256 192H192V569.6h288v115.2zM115.2 108.8h729.6v409.6H960V0H0v960h608V851.2H115.2V108.8zM748.8 870.4c-96 0-172.8-76.8-172.8-172.8s76.8-172.8 172.8-172.8 172.8 76.8 172.8 172.8-76.8 172.8-172.8 172.8z m0-230.4c-32 0-57.6 25.6-57.6 57.6s25.6 57.6 57.6 57.6 57.6-25.6 57.6-57.6-25.6-57.6-57.6-57.6zM772.928 807.552l88.256-74.048 144 171.52-88.32 74.112z" /></svg>