<?xml version="1.0" standalone="no"?>
<!DOCTYPE svg PUBLIC "-//W3C//DTD SVG 1.1//EN" "http://www.w3.org/Graphics/SVG/1.1/DTD/svg11.dtd">
<svg class="icon" style="width: 1em;height: 1em;vertical-align: middle;fill: currentColor;overflow: hidden;" viewBox="0 0 1024 1024" version="1.1" xmlns="http://www.w3.org/2000/svg"><path d="M256 202.666667c-29.44 0-53.333333 23.893333-53.333333 53.333333v160h-64V256A117.333333 117.333333 0 0 1 256 138.666667h512A117.333333 117.333333 0 0 1 885.333333 256v160h-64V256c0-29.44-23.893333-53.333333-53.333333-53.333333H256z m-202.666667 277.333333h917.333334v64H53.333333v-64zM885.333333 768v-64h-64V768h64z m0-179.2v64h-64v-64h64z m-64 296.533333a64 64 0 0 0 64-64h-64v64z m-117.333333-64v64H640v-64h64z m-170.666667 64v-64H469.333333v64h64z m-170.666666-64v64H298.666667v-64h64z m-160 64v-64h-64a64 64 0 0 0 64 64z m0-181.333333V768h-64v-64h64z m0-51.2v-64h-64v64h64z" fill="#29506C" /></svg>