<?xml version="1.0" standalone="no"?>
<!DOCTYPE svg PUBLIC "-//W3C//DTD SVG 1.1//EN" "http://www.w3.org/Graphics/SVG/1.1/DTD/svg11.dtd">
<svg class="icon" style="width: 1em;height: 1em;vertical-align: middle;fill: currentColor;overflow: hidden;" viewBox="0 0 1024 1024" version="1.1" xmlns="http://www.w3.org/2000/svg"><path d="M928 384h96v384h-96zM576 512a64 64 0 1 0 128 0 64 64 0 1 0-128 0zM0 384h96v384H0z m384 268.8h256v96H384zM563.2 64H460.8v140.8h-320v742.4h742.4V204.8h-320V64z m217.6 243.2v537.6H243.2V307.2h537.6zM320 512a64 64 0 1 0 128 0 64 64 0 1 0-128 0z" /></svg>