<?xml version="1.0" standalone="no"?>
<!DOCTYPE svg PUBLIC "-//W3C//DTD SVG 1.1//EN" "http://www.w3.org/Graphics/SVG/1.1/DTD/svg11.dtd">
<svg class="icon" style="width: 1em;height: 1em;vertical-align: middle;fill: currentColor;overflow: hidden;" viewBox="0 0 1024 1024" version="1.1" xmlns="http://www.w3.org/2000/svg"><path d="M299.648 566.314667V414.378667a212.352 212.352 0 0 1 424.704 0.64v157.098666a180.906667 180.906667 0 0 1-120.405333 170.496 117.461333 117.461333 0 0 1-23.978667 4.266667 84.394667 84.394667 0 1 0 0.554667 64.170667c16.384-1.194667 33.024-3.925333 44.8-8.106667a245.077333 245.077333 0 0 0 158.037333-181.333333h7.936a136.746667 136.746667 0 0 0 0-273.493334h-11.093333a276.48 276.48 0 0 0-536.405334 0h-11.093333a136.746667 136.746667 0 1 0 0 273.493334h11.648c30.549333 0 55.296-24.746667 55.296-55.296z m488.704-8.746667V412.16h2.944a72.704 72.704 0 1 1 0 145.493333h-2.944zM232.746667 412.16h2.901333V557.568h-2.901333a72.746667 72.746667 0 0 1 0-145.450667z m249.088 367.530667a20.352 20.352 0 1 1 40.746666 0 20.352 20.352 0 0 1-40.746666 0zM426.666667 384a32 32 0 1 1 0 64 32 32 0 0 1 0-64z m170.666666 0a32 32 0 1 1 0 64 32 32 0 0 1 0-64z" fill="#29506C" /></svg>