<?xml version="1.0" standalone="no"?>
<!DOCTYPE svg PUBLIC "-//W3C//DTD SVG 1.1//EN" "http://www.w3.org/Graphics/SVG/1.1/DTD/svg11.dtd">
<svg class="icon" style="width: 1em;height: 1em;vertical-align: middle;fill: currentColor;overflow: hidden;" viewBox="0 0 1024 1024" version="1.1" xmlns="http://www.w3.org/2000/svg"><path d="M361.813333 245.333333c-111.36 0-201.813333 90.624-201.813333 202.666667s90.453333 202.666667 201.813333 202.666667h329.642667v96.896c49.792-38.144 87.978667-73.728 115.498667-112.725334 35.328-50.005333 54.314667-107.392 54.314666-186.837333 0-110.592-90.581333-202.666667-201.813333-202.666667H361.813333zM96 448c0-147.2 118.912-266.666667 265.813333-266.666667h297.642667c147.072 0 265.813333 121.258667 265.813333 266.666667 0 91.221333-22.272 161.792-66.048 223.786667-42.88 60.714667-105.216 111.36-181.248 164.992l-50.432 35.541333V810.666667l-0.085333-95.957334H361.856c-146.944 0-265.856-119.466667-265.856-266.666666z m329.386667-42.666667a32 32 0 1 1 0 64 32 32 0 0 1 0-64z m202.666666 32a32 32 0 1 0-64 0 32 32 0 0 0 64 0z" fill="#29506C" /></svg>