<?xml version="1.0" standalone="no"?>
<!DOCTYPE svg PUBLIC "-//W3C//DTD SVG 1.1//EN" "http://www.w3.org/Graphics/SVG/1.1/DTD/svg11.dtd">
<svg class="icon" style="width: 1em;height: 1em;vertical-align: middle;fill: currentColor;overflow: hidden;" viewBox="0 0 1024 1024" version="1.1" xmlns="http://www.w3.org/2000/svg"><path d="M276.010667 114.602667l24.96-20.010667-39.978667-49.962667-25.002667 19.968-128 102.4-24.96 20.010667 39.978667 49.962667 25.002667-19.968 128-102.4z m472.021333 0l-25.002667-20.010667 39.978667-49.962667 24.96 19.968 128 102.4 25.002667 20.010667-39.978667 49.962667-24.96-19.968-128-102.4zM96 552.362667c0-228.778667 186.410667-413.994667 416-413.994667s416 185.173333 416 413.994667c0 228.821333-186.410667 414.037333-416 414.037333s-416-185.173333-416-414.037333zM512 202.368c-194.56 0-352 156.842667-352 349.994667 0 193.194667 157.44 350.037333 352 350.037333 194.56 0 352-156.842667 352-350.037333 0-193.152-157.44-349.994667-352-349.994667z m27.264 166.912L512 324.992l-27.264 44.288-102.4 166.4-10.325333 16.768 10.325333 16.768 102.4 166.4L512 779.946667l27.264-44.288 102.4-166.4 10.325333-16.768-10.325333-16.768-102.4-166.4zM512 657.792l-64.853333-105.344L512 447.146667l64.853333 105.386666L512 657.749333z" fill="#29506C" /></svg>