<?xml version="1.0" standalone="no"?>
<!DOCTYPE svg PUBLIC "-//W3C//DTD SVG 1.1//EN" "http://www.w3.org/Graphics/SVG/1.1/DTD/svg11.dtd">
<svg class="icon" style="width: 1em;height: 1em;vertical-align: middle;fill: currentColor;overflow: hidden;" viewBox="0 0 1024 1024" version="1.1" xmlns="http://www.w3.org/2000/svg"><path d="M309.333333 160V106.666667h64v53.333333h277.333334V106.666667h64v53.333333H768a117.333333 117.333333 0 0 1 117.333333 117.333333v512A117.333333 117.333333 0 0 1 768 906.666667H256a117.333333 117.333333 0 0 1-117.333333-117.333334v-512A117.333333 117.333333 0 0 1 256 160h53.333333zM256 224c-29.44 0-53.333333 23.893333-53.333333 53.333333v53.333334h618.666666V277.333333c0-29.44-23.893333-53.333333-53.333333-53.333333H256z m565.333333 170.666667H202.666667v394.666666c0 29.44 23.893333 53.333333 53.333333 53.333334h512c29.44 0 53.333333-23.893333 53.333333-53.333334V394.666667z m-320 96a32 32 0 1 1 0 64 32 32 0 0 1 0-64z m202.666667 32a32 32 0 1 0-64 0 32 32 0 0 0 64 0z m-373.333333-32a32 32 0 1 1 0 64 32 32 0 0 1 0-64z m202.666666 202.666666a32 32 0 1 0-64 0 32 32 0 0 0 64 0z m-202.666666-32a32 32 0 1 1 0 64 32 32 0 0 1 0-64z m373.333333 32a32 32 0 1 0-64 0 32 32 0 0 0 64 0z" fill="#29506C" /></svg>