<?xml version="1.0" standalone="no"?>
<!DOCTYPE svg PUBLIC "-//W3C//DTD SVG 1.1//EN" "http://www.w3.org/Graphics/SVG/1.1/DTD/svg11.dtd">
<svg class="icon" style="width: 1em;height: 1em;vertical-align: middle;fill: currentColor;overflow: hidden;" viewBox="0 0 1024 1024" version="1.1" xmlns="http://www.w3.org/2000/svg"><path d="M639.204 21.618l27.704 9.67c62.578 21.903 119.98 56.207 168.847 100.979l20.65 18.944-4.835 27.59a176.356 176.356 0 0 0 19.968 116.623 169.87 169.87 0 0 0 87.78 75.89l26.453 10.126 5.518 27.762a522.524 522.524 0 0 1 0 203.32l-5.575 27.876-26.567 10.07a169.756 169.756 0 0 0-87.61 75.946 176.299 176.299 0 0 0-20.024 116.509l4.779 27.59-20.651 18.945a488.505 488.505 0 0 1-168.733 100.978l-27.704 9.67-22.358-19a166.286 166.286 0 0 0-215.381 0l-22.3 18.944-27.705-9.614a489.244 489.244 0 0 1-168.79-100.864l-20.764-18.944 4.835-27.648c6.94-39.936 0-81.067-19.91-116.623a169.529 169.529 0 0 0-87.723-75.946l-26.51-10.07-5.576-27.818a522.524 522.524 0 0 1 0-203.321l5.575-27.876 26.567-10.07a169.756 169.756 0 0 0 87.61-75.889 176.356 176.356 0 0 0 20.024-116.622l-4.778-27.534 20.65-18.944A488.505 488.505 0 0 1 351.403 31.289l27.705-9.671 22.357 19a166.286 166.286 0 0 0 215.381 0l22.358-19z m18.545 116.053l-7.11 4.722a268.857 268.857 0 0 1-282.966 0l-7.168-4.722-11.549 5.12a386.565 386.565 0 0 0-66.958 39.993l-10.809 8.476 0.57 13.824a278.41 278.41 0 0 1-28.787 127.318l-6.94 13.141A273.75 273.75 0 0 1 134.77 448.398l-11.435 6.144-1.877 15.36a419.899 419.899 0 0 0 0 81.977l1.877 15.246 11.549 6.258a272.327 272.327 0 0 1 93.582 90.112l7.623 12.743A277.78 277.78 0 0 1 271.7 816.64l-0.569 13.71 10.98 8.647c21.049 15.645 43.463 29.07 67.015 40.107l11.321 4.95 7.225-4.722a268.857 268.857 0 0 1 282.965 0l7.111 4.664 11.606-5.006c23.609-11.093 46.08-24.462 66.958-40.05l10.695-8.476-0.455-13.88a278.756 278.756 0 0 1 28.786-127.318l6.94-13.085a273.75 273.75 0 0 1 101.262-102.855l11.378-6.2 1.934-15.247a420.48 420.48 0 0 0 0-82.034l-1.934-15.36-11.776-6.371a272.213 272.213 0 0 1-93.411-89.998l-7.51-12.63a278.699 278.699 0 0 1-35.612-140.345l0.512-13.88-10.752-8.477a386.105 386.105 0 0 0-66.958-40.05l-11.663-5.063zM509.156 312.718a198.144 198.144 0 1 1 0 396.288 198.144 198.144 0 0 1 0-396.288z m0 102.4a95.744 95.744 0 1 0 0 191.488 95.744 95.744 0 0 0 0-191.488z" /></svg>