<?xml version="1.0" standalone="no"?>
<!DOCTYPE svg PUBLIC "-//W3C//DTD SVG 1.1//EN" "http://www.w3.org/Graphics/SVG/1.1/DTD/svg11.dtd">
<svg class="icon" style="width: 1em;height: 1em;vertical-align: middle;fill: currentColor;overflow: hidden;" viewBox="0 0 1024 1024" version="1.1" xmlns="http://www.w3.org/2000/svg"><path d="M512 117.333333a394.666667 394.666667 0 1 0 0 789.333334 394.666667 394.666667 0 0 0 0-789.333334zM53.333333 512C53.333333 258.688 258.688 53.333333 512 53.333333S970.666667 258.688 970.666667 512 765.312 970.666667 512 970.666667 53.333333 765.312 53.333333 512z m135.253334 1.194667a32 32 0 0 1 49.493333-40.533334l80.853333 98.816 7.253334 8.832v11.392c0 88.917333 79.488 165.632 183.552 165.632 104.106667 0 183.594667-76.714667 183.594666-165.632V320a32 32 0 0 1 64 0v271.701333c0 129.408-113.493333 229.632-247.594666 229.632-129.92 0-240.597333-94.165333-247.253334-217.813333L188.586667 513.194667zM373.333333 298.666667a32 32 0 0 1 64 0v256a32 32 0 0 1-64 0V298.666667z m106.666667-85.333334a32 32 0 0 1 64 0v298.666667a32 32 0 0 1-64 0V213.333333z m106.666667 42.666667a32 32 0 0 1 64 0v277.333333a32 32 0 0 1-64 0V256z" fill="#29506C" /></svg>