<?xml version="1.0" standalone="no"?>
<!DOCTYPE svg PUBLIC "-//W3C//DTD SVG 1.1//EN" "http://www.w3.org/Graphics/SVG/1.1/DTD/svg11.dtd">
<svg class="icon" style="width: 1em;height: 1em;vertical-align: middle;fill: currentColor;overflow: hidden;" viewBox="0 0 1024 1024" version="1.1" xmlns="http://www.w3.org/2000/svg"><path d="M480 210.304V85.333333h64v124.970667h-64z m222.72 65.706667l88.32-88.32 45.269333 45.226666-88.32 88.362667-45.269333-45.226667zM187.690667 232.96l88.32 88.362667L321.28 276.053333 232.96 187.690667l-45.269333 45.226666zM938.666667 544h-124.970667v-64H938.666667v64z m-235.946667 203.946667l85.333333 85.333333 45.226667-45.226667-85.333333-85.333333-45.226667 45.226667zM480 938.666667v-128h64v128h-64z m-203.946667-235.946667l-88.362666 88.32 45.226666 45.269333 88.362667-88.32-45.226667-45.269333z m-65.749333-158.72H85.333333v-64h124.970667v64zM373.333333 512a138.666667 138.666667 0 1 1 277.333334 0 138.666667 138.666667 0 0 1-277.333334 0zM512 309.333333a202.666667 202.666667 0 1 0 0 405.333334 202.666667 202.666667 0 0 0 0-405.333334z" fill="#29506C" /></svg>