<?xml version="1.0" standalone="no"?>
<!DOCTYPE svg PUBLIC "-//W3C//DTD SVG 1.1//EN" "http://www.w3.org/Graphics/SVG/1.1/DTD/svg11.dtd">
<svg class="icon" style="width: 1em;height: 1em;vertical-align: middle;fill: currentColor;overflow: hidden;" viewBox="0 0 1024 1024" version="1.1" xmlns="http://www.w3.org/2000/svg"><path d="M170.666667 138.666667h-32.853334l0.853334 32.853333a812.8 812.8 0 0 0 80.512 333.226667c68.608 141.568 176.298667 242.944 307.029333 305.365333a32.384 32.384 0 0 0 2.218667 1.066667c97.493333 46.122667 207.701333 70.656 323.968 74.154666l32.938666 0.981334v-253.226667l-28.032-3.498667-170.666666-21.333333-15.530667-1.962667-11.093333 11.093334-125.354667 125.44a579.626667 579.626667 0 0 1-252.330667-254.805334L406.613333 364.074667l10.410667-10.410667-1.109333-14.634667-12.757334-170.752-2.218666-29.610666H170.666667z m180.309333 190.464L254.293333 425.557333A749.354667 749.354667 0 0 1 204.202667 202.666667h137.386666l9.386667 126.464zM821.333333 819.754667c-79.786667-5.376-155.349333-21.589333-224.426666-48.64l97.322666-97.408 127.104 15.872v130.133333zM554.666667 213.333333a42.666667 42.666667 0 1 0-85.333334 0 42.666667 42.666667 0 0 0 85.333334 0z m85.333333-42.666666a42.666667 42.666667 0 1 1 0 85.333333 42.666667 42.666667 0 0 1 0-85.333333z m170.666667 42.666666a42.666667 42.666667 0 1 0-85.333334 0 42.666667 42.666667 0 0 0 85.333334 0z m-298.666667 213.333334a42.666667 42.666667 0 1 1 0 85.333333 42.666667 42.666667 0 0 1 0-85.333333z m128-85.333334a42.666667 42.666667 0 1 0-85.333333 0 42.666667 42.666667 0 0 0 85.333333 0z m85.333333-42.666666a42.666667 42.666667 0 1 1 0 85.333333 42.666667 42.666667 0 0 1 0-85.333333z m170.666667 42.666666a42.666667 42.666667 0 1 0-85.333333 0 42.666667 42.666667 0 0 0 85.333333 0z m-256 85.333334a42.666667 42.666667 0 1 1 0 85.333333 42.666667 42.666667 0 0 1 0-85.333333z m170.666667 42.666666a42.666667 42.666667 0 1 0-85.333334 0 42.666667 42.666667 0 0 0 85.333334 0z m85.333333-298.666666a42.666667 42.666667 0 1 1 0 85.333333 42.666667 42.666667 0 0 1 0-85.333333z m42.666667 298.666666a42.666667 42.666667 0 1 0-85.333334 0 42.666667 42.666667 0 0 0 85.333334 0z" fill="#29506C" /></svg>