<?xml version="1.0" standalone="no"?>
<!DOCTYPE svg PUBLIC "-//W3C//DTD SVG 1.1//EN" "http://www.w3.org/Graphics/SVG/1.1/DTD/svg11.dtd">
<svg class="icon" style="width: 1em;height: 1em;vertical-align: middle;fill: currentColor;overflow: hidden;" viewBox="0 0 1024 1024" version="1.1" xmlns="http://www.w3.org/2000/svg"><path d="M524.8 448c70.4 0 128-57.6 128-128s-57.6-128-128-128-128 57.6-128 128 57.6 128 128 128z m0-185.6c32 0 57.6 25.6 57.6 57.6s-19.2 57.6-57.6 57.6-57.6-25.6-57.6-57.6 25.6-57.6 57.6-57.6zM864 736v172.8H192V736H96v275.2h864V736z m-339.2 96L768 524.8c44.8-57.6 76.8-128 76.8-204.8 0-179.2-140.8-320-320-320s-320 140.8-320 320c0 76.8 32 153.6 76.8 204.8L524.8 832z m0-736c121.6 0 224 102.4 224 224 0 64-25.6 121.6-64 160L569.6 620.8l-44.8 57.6-32-38.4-96-128-19.2-25.6-12.8-12.8c-38.4-38.4-57.6-96-57.6-153.6 0-121.6 96-224 217.6-224z" /></svg>