<?xml version="1.0" standalone="no"?>
<!DOCTYPE svg PUBLIC "-//W3C//DTD SVG 1.1//EN" "http://www.w3.org/Graphics/SVG/1.1/DTD/svg11.dtd">
<svg class="icon" style="width: 1em;height: 1em;vertical-align: middle;fill: currentColor;overflow: hidden;" viewBox="0 0 1024 1024" version="1.1" xmlns="http://www.w3.org/2000/svg"><path d="M160 272A112 112 0 0 1 272 160h480a112 112 0 0 1 112 112v480a112 112 0 0 1-112 112H272a112 112 0 0 1-112-112V272zM272 96A176 176 0 0 0 96 272v480a176 176 0 0 0 176 176h480a176 176 0 0 0 176-176V272a176 176 0 0 0-176-176H272z m421.162667 170.325333a55.978667 55.978667 0 0 0-79.189334 0l-174.421333 174.464-95.701333 95.658667-11.946667 11.946667-6.186667 6.186666-2.133333 8.405334-34.56 132.949333-13.653333 52.736 52.693333-13.696 132.906667-34.56 8.448-2.133333 6.144-6.186667 11.946666-11.946667 95.701334-95.701333 174.464-174.421333a56.021333 56.021333 0 0 0 0-79.189334l-22.613334 22.613334 22.613334-22.613334-64.512-64.512z m-39.594667 39.594667l16.768-16.768-16.768 16.768-5.632 5.674667 5.632-5.674667z m-168.746667 180.096l168.746667-168.746667 53.162667 53.162667-168.746667 168.746667 20.906667 20.906666-20.906667-20.906666-95.701333 95.701333-5.802667 5.802667-71.808 18.645333 18.645333-71.808 5.802667-5.802667 95.701333-95.701333z" fill="#29506C" /></svg>