<?xml version="1.0" standalone="no"?>
<!DOCTYPE svg PUBLIC "-//W3C//DTD SVG 1.1//EN" "http://www.w3.org/Graphics/SVG/1.1/DTD/svg11.dtd">
<svg class="icon" style="width: 1em;height: 1em;vertical-align: middle;fill: currentColor;overflow: hidden;" viewBox="0 0 1024 1024" version="1.1" xmlns="http://www.w3.org/2000/svg"><path d="M202.666667 501.76c0-164.565333 132.522667-299.093333 309.76-299.093333 177.066667 0 308.906667 134.4 308.906666 299.093333 0 161.834667-129.152 276.906667-309.333333 276.906667h-32v79.274666c-72.021333-17.322667-136.874667-61.738667-186.069333-120.874666-57.301333-68.821333-91.264-154.965333-91.264-235.264z m309.76-363.093333c-211.328 0-373.76 161.962667-373.76 363.093333 0 97.450667 40.704 197.717333 106.069333 276.266667 65.493333 78.634667 157.866667 138.026667 263.722667 149.76l35.541333 3.968v-90.197334c192.981333-13.226667 341.333333-146.389333 341.333333-339.754666 0-201.088-161.536-363.136-372.906666-363.136zM373.333333 512a32 32 0 1 0-64 0 32 32 0 0 0 64 0z m138.666667-32a32 32 0 1 1 0 64 32 32 0 0 1 0-64z m202.666667 32a32 32 0 1 0-64 0 32 32 0 0 0 64 0z" fill="#29506C" /></svg>