<?xml version="1.0" standalone="no"?>
<!DOCTYPE svg PUBLIC "-//W3C//DTD SVG 1.1//EN" "http://www.w3.org/Graphics/SVG/1.1/DTD/svg11.dtd">
<svg class="icon" style="width: 1em;height: 1em;vertical-align: middle;fill: currentColor;overflow: hidden;" viewBox="0 0 1024 1024" version="1.1" xmlns="http://www.w3.org/2000/svg"><path d="M416 256a96 96 0 1 1 192 0 96 96 0 0 1-192 0zM512 96a160 160 0 1 0 0 320 160 160 0 0 0 0-320z m-146.346667 383.829333l-14.805333-9.557333-16 7.424C193.536 543.232 96 689.877333 96 853.333333v32h832V853.333333c0-163.456-97.493333-310.101333-238.848-375.637333l-16-7.424-14.805333 9.557333A269.098667 269.098667 0 0 1 512 522.666667a269.141333 269.141333 0 0 1-146.346667-42.837334z m311.594667 63.36c101.930667 53.632 174.208 158.805333 185.258667 278.144H161.493333c11.093333-119.338667 83.328-224.512 185.258667-278.186666A333.397333 333.397333 0 0 0 512 586.666667c60.117333 0 116.565333-15.786667 165.248-43.52z" fill="#29506C" /></svg>