<?xml version="1.0" standalone="no"?>
<!DOCTYPE svg PUBLIC "-//W3C//DTD SVG 1.1//EN" "http://www.w3.org/Graphics/SVG/1.1/DTD/svg11.dtd">
<svg class="icon" style="width: 1em;height: 1em;vertical-align: middle;fill: currentColor;overflow: hidden;" viewBox="0 0 1024 1024" version="1.1" xmlns="http://www.w3.org/2000/svg"><path d="M512 138.666667A373.077333 373.077333 0 0 0 138.666667 512 373.077333 373.077333 0 0 0 512 885.333333 373.077333 373.077333 0 0 0 885.333333 512c0-20.266667-2.176-39.552-4.693333-57.173333l-63.146667-1.322667a211.498667 211.498667 0 0 1-207.957333 172.8A211.882667 211.882667 0 0 1 397.653333 414.464a211.498667 211.498667 0 0 1 172.8-207.957333l-1.792-63.189334-4.053333 31.744 4.053333-31.744h-0.128l-0.341333-0.085333-1.194667-0.128a829.354667 829.354667 0 0 0-18.773333-2.090667A405.76 405.76 0 0 0 512 138.666667zM202.666667 512c0-137.685333 89.6-254.122667 213.76-294.314667A274.432 274.432 0 0 0 333.653333 414.464a275.882667 275.882667 0 0 0 275.84 275.84c77.226667 0 146.858667-31.701333 196.778667-82.730667A309.162667 309.162667 0 0 1 512 821.333333 309.077333 309.077333 0 0 1 202.666667 512z m561.792-216.576c-17.706667-4.309333-31.573333-18.176-35.84-35.925333L706.986667 170.666667l-21.546667 88.832c-4.266667 17.749333-18.133333 31.573333-35.882667 35.925333l-88.832 21.546667 88.832 21.546666c17.749333 4.266667 31.573333 18.133333 35.882667 35.84l21.546667 88.874667 21.546666-88.832c4.266667-17.749333 18.176-31.573333 35.882667-35.882667L853.333333 316.970667l-88.874666-21.546667z" fill="#29506C" /></svg>