<?xml version="1.0" standalone="no"?>
<!DOCTYPE svg PUBLIC "-//W3C//DTD SVG 1.1//EN" "http://www.w3.org/Graphics/SVG/1.1/DTD/svg11.dtd">
<svg class="icon" style="width: 1em;height: 1em;vertical-align: middle;fill: currentColor;overflow: hidden;" viewBox="0 0 1024 1024" version="1.1" xmlns="http://www.w3.org/2000/svg"><path d="M512 0C230.4 0 0 230.4 0 512s230.4 512 512 512 512-230.4 512-512S793.6 0 512 0z m0 908.8c-217.6 0-396.8-179.2-396.8-396.8S294.4 115.2 512 115.2 908.8 294.4 908.8 512 729.6 908.8 512 908.8zM256 768l448-64 64-448-448 64-64 448z m396.8-396.8l-25.6 192-160-166.4 185.6-25.6z m-256 96l166.4 166.4-192 25.6 25.6-192z" /></svg>